<?xml version="1.0" encoding="UTF-8"?>
<!-- Generated by Pixelmator Pro 3.7.1 -->
<svg width="500" height="500" viewBox="0 0 500 500" xmlns="http://www.w3.org/2000/svg">
    <path id="Shape" fill="#000000" stroke="none" d="M 405.666382 55.365723 C 463.154663 101.16983 500 171.782074 500 251 C 500 342.681122 450.649048 422.835724 377.063049 466.347839 C 361.751007 477.17572 342.023773 486.060272 316.799591 491.976074 C 295.536102 497.857483 273.13504 501 250 501 C 241.290375 501 232.684753 500.554626 224.204712 499.685364 C 157.381485 496.684052 100.695396 472.91687 74.594078 459.009491 L 82.072678 436.206207 C 31.659203 390.468506 0 324.431458 0 251 C 0 156.000854 52.987705 73.377655 131.020416 31.07312 C 155.768387 14.536072 189.326721 3.351959 233.444885 1.539429 C 238.917068 1.181671 244.437317 1 250 1 C 270.939789 1 291.278259 3.574402 310.716217 8.424011 C 352.132416 16.710571 391.293243 30.602905 410.746521 41.309692 L 405.666382 55.365723 Z M 405.666382 55.365723 C 378.152649 33.444 345.910522 17.204681 310.716187 8.424011 C 289.018433 4.082733 266.70166 1.280029 246.275299 1.280029 C 241.902649 1.280029 237.626328 1.367645 233.44487 1.539429 C 196.545593 3.951721 161.830765 14.369629 131.020401 31.07312 C 89.268448 58.972504 72.592949 102.107635 72.592949 141.181549 C 72.592949 223.628448 146.937988 247.345734 225.675156 272.551208 L 228.875488 273.512024 C 299.127899 295.755554 347.577545 312.17627 347.577545 362.226013 C 347.577545 426.698975 254.0811 427.555023 228.406052 426.48584 C 163.145584 423.354126 117.932442 398.676056 98.990562 384.621216 L 82.072678 436.206207 C 120.470818 471.042999 169.748917 494.103455 224.204742 499.685394 C 228.80069 499.891815 233.444595 500 238.129807 500 C 268.950897 500 294.939484 497.102875 316.799622 491.976044 C 338.173431 486.064117 358.397888 477.384735 377.063049 466.347839 C 415.326355 439.289917 426.018616 400.09668 426.018616 364.768951 C 426.018616 262.487793 340.923981 233.9086 261.457031 209.468933 L 254.250839 207.167999 C 197.948593 189.761108 149.708466 174.026672 149.708466 132.479889 C 149.708466 87.010406 203.449768 69.841919 252.798721 69.841919 C 298.911163 69.841919 340.324371 85.496887 386.436798 108.571228 L 405.666382 55.365723 Z"/>
</svg>
