<?xml version="1.0" encoding="UTF-8"?>
<!-- Generated by Pixelmator Pro 3.7.1 -->
<svg width="4300" height="576" viewBox="0 0 4300 576" xmlns="http://www.w3.org/2000/svg">
    <g id="Group">
        <path id="Path" fill="#f16122" fill-rule="evenodd" stroke="none" d="M 525.123962 9.727295 L 610.240662 9.727295 L 610.240662 571.440247 L 525.123962 571.440247 Z"/>
        <g id="g1">
            <path id="path1" fill="#f16122" stroke="none" d="M 857.970032 385.923401 L 945.44928 136.694031 L 1030.765991 385.923401 Z M 909.186768 9.731445 L 703.332458 571.440247 L 794.061646 571.440247 L 832.728394 458.519318 L 1054.38269 458.519318 L 1093.00769 571.440247 L 1183.728638 571.440247 L 977.874329 9.731445 Z"/>
            <path id="path2" fill="#f16122" stroke="none" d="M 1550.674805 378.198425 L 1348.503784 9.727295 L 1263.29126 9.727295 L 1263.29126 571.440247 L 1348.503784 571.440247 L 1348.503784 195.956604 L 1519.08728 488.65683 L 1582.162354 488.65683 L 1730.604126 195.956604 L 1730.604126 571.440247 L 1815.775024 571.440247 L 1815.775024 9.727295 L 1730.604126 9.727295 Z"/>
            <path id="path3" fill="#f16122" stroke="none" d="M 1942.562622 571.440247 L 2320.621338 571.440247 L 2320.621338 494.902679 L 2027.72937 494.902679 L 2027.72937 326.094208 L 2280.325439 326.094208 L 2280.325439 250.348297 L 2027.72937 250.348297 L 2027.72937 86.214844 L 2320.621338 86.214844 L 2320.621338 9.727295 L 1942.562622 9.727295 Z"/>
            <path id="path4" fill="#f16122" stroke="none" d="M 2807.271729 404.152588 L 2515.363037 9.731445 L 2437.183838 9.731445 L 2437.183838 571.440247 L 2522.496338 571.440247 L 2522.496338 176.252411 L 2814.40918 571.440247 L 2892.53833 571.440247 L 2892.53833 9.731445 L 2807.271729 9.731445 Z"/>
            <path id="path5" fill="#f16122" stroke="none" d="M 2989.317627 86.214844 L 3143.909424 86.214844 L 3143.909424 571.440247 L 3229.271973 571.440247 L 3229.271973 86.214844 L 3383.763672 86.214844 L 3383.763672 9.731445 L 2989.317627 9.731445 Z"/>
        </g>
        <path id="path6" fill="#f16122" fill-rule="evenodd" stroke="none" d="M 3480.692871 9.727295 L 3565.909668 9.727295 L 3565.909668 571.440247 L 3480.692871 571.440247 Z"/>
        <path id="path7" fill="#f16122" stroke="none" d="M 390.065521 47.173157 C 355.923828 28.352295 268.982086 0.998108 200.394531 0.998108 C 52.444412 0.998108 -0.001455 88.056488 -0.001455 162.377411 C -0.001455 257.481628 85.75695 284.839996 176.632019 313.915009 L 180.319504 315.023346 C 261.407074 340.681702 317.148773 359.623383 317.148773 417.35675 C 317.148773 491.727661 209.248703 492.715149 179.832001 491.481812 C 104.552773 487.869324 52.444412 459.402649 30.452728 443.190125 L 2.311049 528.998535 C 34.390232 546.144348 106.965286 576.281921 190.9487 576.281921 C 370.140503 576.281921 407.628021 491.481812 407.628021 420.2901 C 407.628021 302.306671 309.523773 269.339996 217.961212 241.148315 L 209.594543 238.494141 C 144.502808 218.414948 89.10276 200.264923 89.10276 152.339874 C 89.10276 99.889862 151.090317 80.085663 207.873688 80.085663 C 261.107086 80.085663 308.886292 98.144012 362.119659 124.760712 Z"/>
        <path id="path8" fill="#f16122" stroke="none" d="M 4063.531006 47.173157 C 4029.335205 28.352295 3942.347412 0.998108 3873.810059 0.998108 C 3725.763916 0.998108 3673.463867 88.056488 3673.463867 162.377411 C 3673.463867 257.481628 3759.222412 284.839996 3850.047363 313.915009 L 3853.739014 315.023346 C 3934.776611 340.681702 3990.664307 359.623383 3990.664307 417.35675 C 3990.664307 491.727661 3882.814209 492.715149 3853.19751 491.481812 C 3777.918213 487.869324 3725.763916 459.402649 3703.914063 443.190125 L 3675.772217 528.998535 C 3707.951416 546.144348 3780.430664 576.281921 3864.414063 576.281921 C 4043.505859 576.281921 4081.147705 491.481812 4081.147705 420.2901 C 4081.147705 302.306671 3982.989258 269.339996 3891.32251 241.148315 L 3883.01001 238.494141 C 3818.064209 218.414948 3762.418213 200.264923 3762.418213 152.339874 C 3762.418213 99.889862 3824.409912 80.085663 3881.334961 80.085663 C 3934.526611 80.085663 3982.297607 98.144012 4035.489258 124.760712 Z"/>
    </g>
</svg>
