<svg width="500" height="500" viewBox="0 0 500 500" xmlns="http://www.w3.org/2000/svg">
    <path d="M 364.570465 107.013184 C 406.881836 140.725006 434 192.695618 434 251 C 434 318.477295 397.677704 377.471069 343.518402 409.496002 C 332.248749 417.465332 317.729492 424.004364 299.16449 428.358398 C 283.514557 432.687134 267.027405 435 250 435 C 243.589722 435 237.255981 434.67218 231.014664 434.03244 C 181.832779 431.823456 140.111816 414.330811 120.901245 404.095001 L 126.405487 387.311768 C 89.30117 353.648804 66 305.045532 66 251 C 66 181.080627 104.998955 120.269958 162.43103 89.13382 C 180.645538 76.962555 205.344467 68.731049 237.81543 67.397034 C 241.842957 67.133698 245.905869 67 250 67 C 265.411682 67 280.380798 68.894745 294.687134 72.464081 C 325.169464 78.562988 353.991821 88.78775 368.309448 96.667938 L 364.570465 107.013184 Z M 364.570465 107.013184 C 344.320343 90.878784 320.590149 78.926636 294.687103 72.464081 C 278.71756 69.26889 262.292419 67.206116 247.258621 67.206116 C 244.040344 67.206116 240.892975 67.270599 237.81543 67.397034 C 210.657562 69.172455 185.107437 76.840057 162.431015 89.13382 C 131.701584 109.667755 119.428413 141.415222 119.428413 170.173615 C 119.428413 230.854553 174.146362 248.310455 232.096909 266.861694 L 234.452362 267.568848 C 286.158142 283.940063 321.817078 296.025757 321.817078 332.862335 C 321.817078 380.314453 253.003693 380.944519 234.106857 380.157593 C 186.07515 377.852661 152.798279 359.689575 138.857056 349.345215 L 126.405487 387.311768 C 154.666519 412.95163 190.935196 429.924133 231.014694 434.03244 C 234.397308 434.184387 237.815216 434.264008 241.263535 434.264008 C 263.947845 434.264008 283.07547 432.131714 299.16452 428.358368 C 314.89566 424.007172 329.780853 417.619171 343.518402 409.496002 C 371.680206 389.58139 379.549713 360.735168 379.549713 334.733948 C 379.549713 259.455017 316.920044 238.420715 258.432373 220.433136 L 253.128616 218.739655 C 211.69017 205.928162 176.185425 194.347626 176.185425 163.769196 C 176.185425 130.30365 215.739029 117.667664 252.05986 117.667664 C 285.998627 117.667664 316.478729 129.189697 350.41748 146.172424 L 364.570465 107.013184 Z"/>
<style>
        path { fill: #000; }
        @media (prefers-color-scheme: dark) {
            path { fill: #FFF; }
        }
    </style>
</svg>
