<?xml version="1.0" encoding="UTF-8"?>
<!-- Generated by Pixelmator Pro 3.7.1 -->
<svg width="800" height="115" viewBox="0 0 800 115" xmlns="http://www.w3.org/2000/svg">
    <g id="Group">
        <path id="Path" fill="#f16122" fill-rule="evenodd" stroke="none" d="M 102.935509 3.709213 L 119.620384 3.709213 L 119.620384 113.818199 L 102.935509 113.818199 Z"/>
        <g id="g1">
            <path id="path1" fill="#f16122" stroke="none" d="M 168.181183 77.452522 L 185.329178 28.597687 L 202.053268 77.452522 Z M 178.220871 3.71003 L 137.868576 113.818192 L 155.653641 113.818192 L 163.233231 91.683029 L 206.682693 91.683029 L 214.254105 113.818192 L 232.037552 113.818192 L 191.685257 3.71003 Z"/>
            <path id="path2" fill="#f16122" stroke="none" d="M 303.967651 75.93824 L 264.337372 3.709213 L 247.633698 3.709213 L 247.633698 113.818192 L 264.337372 113.818192 L 264.337372 40.214546 L 297.775757 97.590698 L 310.139954 97.590698 L 339.238037 40.214546 L 339.238037 113.818192 L 355.933533 113.818192 L 355.933533 3.709213 L 339.238037 3.709213 Z"/>
            <path id="path3" fill="#f16122" stroke="none" d="M 380.786896 113.818199 L 454.895325 113.818199 L 454.895325 98.815025 L 397.481598 98.815025 L 397.481598 65.724586 L 446.996368 65.724586 L 446.996368 50.876602 L 397.481598 50.876602 L 397.481598 18.702576 L 454.895325 18.702576 L 454.895325 3.709213 L 380.786896 3.709213 Z"/>
            <path id="path4" fill="#f16122" stroke="none" d="M 550.290283 81.025879 L 493.069275 3.71003 L 477.744324 3.71003 L 477.744324 113.818192 L 494.46759 113.818192 L 494.46759 36.352066 L 551.689392 113.818192 L 567.004517 113.818192 L 567.004517 3.71003 L 550.290283 3.71003 Z"/>
            <path id="path5" fill="#f16122" stroke="none" d="M 585.975586 18.702576 L 616.279175 18.702576 L 616.279175 113.818192 L 633.012268 113.818192 L 633.012268 18.702576 L 663.296265 18.702576 L 663.296265 3.71003 L 585.975586 3.71003 Z"/>
        </g>
        <path id="path6" fill="#f16122" fill-rule="evenodd" stroke="none" d="M 682.296692 3.709213 L 699.001221 3.709213 L 699.001221 113.818199 L 682.296692 113.818199 Z"/>
        <path id="path7" fill="#f16122" stroke="none" d="M 76.460869 11.049484 C 69.768295 7.360153 52.725662 1.998085 39.280884 1.998085 C 10.279172 1.998085 -0.001455 19.063583 -0.001455 33.632233 C -0.001455 52.274906 16.809216 57.637791 34.622871 63.337177 L 35.345703 63.55444 C 51.24078 68.584076 62.167469 72.297096 62.167469 83.614197 C 62.167469 98.19265 41.01651 98.386223 35.250141 98.144463 C 20.493639 97.436325 10.279172 91.856186 5.968283 88.678146 L 0.451851 105.498619 C 6.740127 108.859612 20.966549 114.767273 37.429279 114.767273 C 72.555099 114.767273 79.903534 98.144463 79.903534 84.189201 C 79.903534 61.061668 60.672787 54.599422 42.724365 49.073189 L 41.084301 48.55291 C 28.324787 44.616913 17.465073 41.059082 17.465073 31.664642 C 17.465073 21.383202 29.616095 17.501114 40.746975 17.501114 C 51.181976 17.501114 60.547825 21.040977 70.982819 26.258476 Z"/>
        <path id="path8" fill="#f16122" stroke="none" d="M 796.546692 11.049484 C 789.843506 7.360153 772.79187 1.998085 759.356934 1.998085 C 730.336426 1.998085 720.084351 19.063583 720.084351 33.632233 C 720.084351 52.274906 736.895081 57.637791 754.698914 63.337177 L 755.422546 63.55444 C 771.3078 68.584076 782.263123 72.297096 782.263123 83.614197 C 782.263123 98.19265 761.121948 98.386223 755.316406 98.144463 C 740.559875 97.436325 730.336426 91.856186 726.053284 88.678146 L 720.536865 105.498619 C 726.844727 108.859612 741.052368 114.767273 757.515076 114.767273 C 792.621338 114.767273 800 98.144463 800 84.189201 C 800 61.061668 780.758606 54.599422 762.789795 49.073189 L 761.160339 48.55291 C 748.429443 44.616913 737.521484 41.059082 737.521484 31.664642 C 737.521484 21.383202 749.67334 17.501114 760.83197 17.501114 C 771.258789 17.501114 780.623047 21.040977 791.049866 26.258476 Z"/>
    </g>
</svg>
